<svg xmlns="http://www.w3.org/2000/svg" xmlns:xlink="http://www.w3.org/1999/xlink" width="1024" zoomAndPan="magnify" viewBox="0 0 768 767.999994" height="1024" preserveAspectRatio="xMidYMid meet" version="1.0"><defs><clipPath id="e98f502037"><path d="M 0 1.726562 L 766.5 1.726562 L 766.5 765.976562 L 0 765.976562 Z M 0 1.726562 " clip-rule="nonzero"/></clipPath></defs><g clip-path="url(#e98f502037)"><path fill="#f4a623" d="M 580.363281 464.277344 C 580.363281 451.386719 589.3125 440.359375 601.878906 435.992188 L 601.878906 426.003906 C 601.878906 419.394531 607.234375 414.039062 613.84375 414.039062 C 620.453125 414.039062 625.808594 419.398438 625.808594 426.003906 L 625.808594 436.003906 C 634.757812 439.109375 642.035156 445.597656 645.351562 454.058594 C 647.761719 460.210938 644.730469 467.152344 638.574219 469.566406 C 632.425781 471.972656 625.480469 468.941406 623.070312 462.789062 C 622.121094 460.367188 618.648438 457.914062 613.84375 457.914062 C 608.21875 457.914062 604.296875 461.269531 604.296875 464.277344 C 604.296875 467.628906 604.296875 468.429688 616.207031 470.84375 C 627.082031 473.046875 647.320312 477.148438 647.320312 500.894531 C 647.320312 513.769531 638.375 524.78125 625.808594 529.144531 L 625.808594 539.339844 C 625.808594 545.949219 620.449219 551.304688 613.839844 551.304688 C 607.234375 551.304688 601.875 545.949219 601.875 539.339844 L 601.875 529.171875 C 594.164062 526.535156 587.710938 521.375 583.886719 514.4375 C 580.695312 508.648438 582.804688 501.371094 588.59375 498.183594 C 594.375 494.996094 601.65625 497.097656 604.847656 502.886719 C 606.035156 505.042969 609.277344 507.21875 613.839844 507.21875 C 619.46875 507.21875 623.390625 503.886719 623.390625 500.894531 C 623.390625 497.519531 623.390625 496.714844 611.453125 494.296875 C 600.589844 492.09375 580.363281 487.996094 580.363281 464.277344 Z M 765.894531 63.789062 L 736.621094 285.597656 C 733.171875 311.566406 711.679688 330.410156 685.507812 330.410156 L 499.335938 330.410156 L 451.152344 381.320312 C 446.371094 386.378906 439.839844 388.96875 432.742188 388.96875 C 427.488281 388.96875 421.925781 387.554688 416.515625 384.675781 C 404.355469 378.128906 397.84375 366.332031 399.867188 354.597656 L 404.03125 330.410156 L 324.207031 330.410156 C 321.738281 330.410156 319.304688 330.21875 316.90625 329.882812 C 315.933594 337.765625 314.398438 345.34375 312.445312 352.285156 C 319.226562 360.382812 323.316406 370.808594 323.316406 382.175781 C 323.316406 407.910156 302.398438 428.847656 276.683594 428.847656 L 275.132812 428.847656 C 269.339844 453.460938 253.742188 474.324219 232.683594 487.046875 L 232.214844 500.121094 C 245.949219 501.078125 258.648438 503.84375 272.152344 508.800781 C 315.386719 524.726562 342.03125 543.082031 375.765625 566.316406 C 376.664062 566.9375 377.570312 567.5625 378.484375 568.1875 L 395.375 530.25 C 395.628906 529.484375 395.957031 528.753906 396.351562 528.066406 L 421.347656 471.929688 C 422.566406 469.199219 423.78125 466.8125 425.292969 464.175781 L 444.621094 430.226562 C 450.703125 419.492188 463.300781 414.238281 475.246094 417.46875 L 476.402344 417.792969 C 483.785156 419.765625 489.714844 424.539062 493.152344 430.96875 L 513.15625 417.449219 C 519.152344 413.398438 526.257812 411.964844 533.0625 413.1875 C 553.230469 389.820312 582.785156 376.109375 613.835938 376.109375 C 672.585938 376.109375 720.382812 423.925781 720.382812 482.695312 C 720.382812 508.085938 711.445312 531.417969 696.5625 549.742188 C 720 559.683594 733.175781 573.878906 733.363281 590.035156 L 733.363281 590.3125 C 733.363281 590.324219 733.363281 590.332031 733.363281 590.34375 C 733.363281 590.351562 733.363281 590.359375 733.363281 590.371094 L 733.363281 650.960938 C 733.363281 650.960938 733.363281 650.972656 733.363281 650.976562 C 733.363281 650.980469 733.363281 650.984375 733.363281 650.988281 L 733.363281 711.441406 C 732.980469 747.476562 672.941406 766.261719 613.835938 766.261719 C 554.730469 766.261719 494.695312 747.476562 494.3125 711.570312 L 494.3125 650.992188 C 494.3125 650.992188 494.3125 650.980469 494.3125 650.976562 C 494.3125 650.972656 494.3125 650.96875 494.3125 650.964844 L 494.3125 590.171875 C 494.5 573.921875 507.648438 559.722656 531.03125 549.777344 C 524.707031 541.980469 519.441406 533.25 515.492188 523.777344 L 498.597656 542.820312 L 443.742188 677.511719 C 438.125 691.246094 427.75 701.046875 413.722656 705.867188 C 399.691406 710.710938 385.484375 709.339844 372.640625 701.890625 L 333.457031 679.375 L 333.457031 754.296875 C 333.457031 760.902344 328.097656 766.261719 321.488281 766.261719 L 12 766.261719 C 5.390625 766.261719 0.0351562 760.902344 0.0351562 754.296875 L 0.0351562 650.679688 C 0.0351562 585.867188 41.382812 530.238281 99.082031 508.957031 C 99.109375 508.945312 99.136719 508.929688 99.164062 508.917969 C 99.503906 508.78125 99.84375 508.664062 100.1875 508.558594 C 112.054688 504.285156 124.605469 501.460938 137.621094 500.304688 L 137.164062 487.066406 C 116.089844 474.347656 100.476562 453.472656 94.683594 428.847656 L 93.175781 428.847656 C 67.4375 428.847656 46.5 407.910156 46.5 382.175781 C 46.5 372.386719 49.539062 363.296875 54.71875 355.789062 C 48.910156 330.746094 40.886719 281.132812 58.984375 250.492188 C 81.058594 213.179688 162.144531 182.457031 202.554688 188.964844 C 225.53125 192.632812 245.898438 200.710938 263.53125 213.078125 L 243.820312 63.765625 C 241.667969 47.667969 246.207031 32.667969 256.953125 20.410156 C 267.714844 8.1875 281.972656 1.734375 298.199219 1.734375 L 711.519531 1.734375 C 727.746094 1.734375 742.003906 8.1875 752.746094 20.390625 C 763.511719 32.667969 768.050781 47.667969 765.894531 63.789062 Z M 75.644531 338.96875 C 80.773438 336.882812 86.351562 335.6875 92.195312 335.566406 L 92.195312 329.347656 C 92.195312 312.332031 104.640625 296.636719 112.058594 288.792969 C 122.121094 278.09375 138.257812 276.378906 150.40625 284.738281 C 150.414062 284.746094 150.417969 284.746094 150.425781 284.753906 C 176.359375 302.667969 208.035156 310.792969 242.015625 308.25 C 251.40625 307.527344 260.058594 310.554688 267.03125 317 C 272.523438 322.125 275.945312 328.457031 277.140625 335.554688 C 282.089844 335.601562 286.859375 336.429688 291.332031 337.914062 C 296.003906 315.453125 295.367188 287.839844 284.832031 270.75 C 264.421875 237.605469 236.269531 218.585938 198.765625 212.597656 C 165.117188 207.1875 94.96875 236.671875 79.582031 262.671875 C 69.363281 279.972656 70.445312 311.027344 75.644531 338.96875 Z M 92.195312 404.867188 L 92.195312 359.523438 C 80.109375 360.039062 70.429688 369.984375 70.429688 382.171875 C 70.429688 394.363281 80.109375 404.347656 92.195312 404.867188 Z M 202.5 555.199219 L 231.847656 572.148438 L 250.285156 527.070312 C 242.3125 525.089844 234.414062 524.011719 225.792969 523.730469 Z M 201.066406 582.003906 L 184.910156 572.675781 L 168.949219 581.890625 L 174.769531 599.84375 L 195.265625 599.84375 Z M 167.316406 555.199219 L 144.101562 523.832031 C 135.738281 524.285156 127.589844 525.566406 119.726562 527.574219 L 137.964844 572.148438 Z M 23.96875 742.328125 L 70.554688 742.328125 L 70.554688 679.445312 C 70.554688 672.835938 75.910156 667.480469 82.519531 667.480469 C 89.128906 667.480469 94.488281 672.835938 94.488281 679.445312 L 94.488281 742.328125 L 134.222656 742.328125 L 153.816406 612.8125 L 147.757812 594.128906 L 138.0625 599.726562 C 136.222656 600.789062 134.160156 601.328125 132.078125 601.328125 C 130.777344 601.328125 129.46875 601.117188 128.210938 600.683594 C 124.941406 599.566406 122.316406 597.09375 121.003906 593.894531 L 97.191406 535.6875 C 54.003906 556.039062 23.964844 600.011719 23.964844 650.675781 L 23.964844 742.328125 Z M 211.601562 742.328125 L 193.667969 623.773438 L 176.359375 623.773438 L 158.421875 742.328125 Z M 709.441406 624.453125 C 704.976562 627.136719 699.960938 629.628906 694.34375 631.875 C 672.648438 640.550781 644.058594 645.332031 613.84375 645.332031 C 583.625 645.332031 555.039062 640.550781 533.34375 631.875 C 527.726562 629.628906 522.707031 627.136719 518.246094 624.453125 L 518.246094 650.960938 C 518.246094 650.960938 518.246094 650.96875 518.246094 650.972656 C 518.246094 663.339844 556.375 682.035156 613.84375 682.035156 C 671.3125 682.035156 709.441406 663.339844 709.441406 650.972656 C 709.441406 650.96875 709.441406 650.964844 709.441406 650.960938 Z M 709.441406 711.308594 L 709.441406 685.085938 C 704.976562 687.769531 699.960938 690.261719 694.34375 692.507812 C 672.648438 701.1875 644.058594 705.964844 613.839844 705.964844 C 583.625 705.964844 555.039062 701.1875 533.339844 692.507812 C 527.726562 690.261719 522.707031 687.769531 518.246094 685.085938 L 518.246094 711.4375 C 518.378906 723.660156 556.574219 742.328125 613.839844 742.328125 C 671.109375 742.328125 709.308594 723.660156 709.441406 711.308594 Z M 677.394531 568.152344 C 659.640625 581.390625 637.640625 589.238281 613.84375 589.238281 C 590.183594 589.238281 568.097656 581.46875 550.226562 568.175781 C 529.3125 574.917969 518.316406 584.148438 518.246094 590.308594 C 518.246094 590.320312 518.246094 590.332031 518.246094 590.339844 C 518.246094 602.703125 556.375 621.398438 613.84375 621.398438 C 671.3125 621.398438 709.441406 602.703125 709.441406 590.339844 L 709.441406 590.167969 C 709.371094 584.128906 698.351562 574.898438 677.394531 568.152344 Z M 552.476562 427.378906 C 554.796875 431.835938 555.863281 436.957031 555.414062 442.25 L 552.699219 474.449219 C 552.300781 479.828125 550.21875 484.691406 546.527344 488.789062 L 533.785156 503.152344 C 538.074219 520.023438 547.441406 534.621094 560.058594 545.425781 C 560.414062 545.695312 560.75 545.984375 561.074219 546.296875 C 575.484375 558.238281 593.949219 565.304688 613.839844 565.304688 C 659.394531 565.304688 696.453125 528.246094 696.453125 482.691406 C 696.453125 437.136719 659.394531 400.035156 613.839844 400.035156 C 590.410156 400.035156 568.082031 410.125 552.476562 427.378906 Z M 425 522.558594 L 483.050781 524.285156 L 528.6875 472.84375 C 528.761719 472.757812 528.808594 472.699219 528.835938 472.667969 C 528.835938 472.648438 528.839844 472.605469 528.84375 472.554688 L 531.570312 440.234375 C 531.683594 438.859375 531.195312 437.90625 530.039062 437.21875 C 530.027344 437.210938 530.015625 437.207031 530.003906 437.199219 C 530.003906 437.199219 530 437.195312 529.996094 437.191406 C 528.792969 436.488281 527.675781 436.523438 526.558594 437.28125 L 492.148438 460.53125 C 488.714844 462.851562 484.320312 463.230469 480.539062 461.527344 C 476.757812 459.824219 474.125 456.285156 473.585938 452.175781 L 472.441406 443.480469 C 472.257812 442.140625 471.464844 441.242188 470.09375 440.875 L 468.902344 440.542969 C 467.515625 440.167969 466.1875 440.722656 465.4375 442.046875 L 446.074219 476.054688 C 444.925781 478.054688 444.101562 479.671875 443.207031 481.675781 L 425.003906 522.5625 Z M 362.191406 586.023438 C 331.183594 564.664062 308.101562 548.773438 272.996094 534.757812 L 248.808594 593.894531 C 247.5 597.09375 244.875 599.570312 241.605469 600.6875 C 240.34375 601.121094 239.039062 601.332031 237.734375 601.332031 C 235.65625 601.332031 233.589844 600.792969 231.75 599.730469 L 222.253906 594.242188 L 216.214844 612.820312 L 235.804688 742.328125 L 309.527344 742.328125 L 309.527344 665.605469 L 276.941406 646.78125 C 271.214844 643.476562 269.257812 636.160156 272.5625 630.4375 C 275.867188 624.714844 283.183594 622.753906 288.910156 626.058594 L 327.449219 648.320312 C 327.449219 648.320312 327.453125 648.320312 327.457031 648.324219 L 384.609375 681.164062 C 391.390625 685.097656 398.550781 685.789062 405.933594 683.238281 C 413.363281 680.683594 418.625 675.714844 421.589844 668.464844 L 470.710938 547.859375 L 414.480469 546.191406 L 394.503906 591.050781 C 393.0625 594.289062 390.253906 596.722656 386.84375 597.691406 C 383.433594 598.660156 379.765625 598.066406 376.835938 596.070312 C 371.761719 592.609375 366.902344 589.265625 362.195312 586.023438 Z M 208.371094 497.328125 C 200.875 499.292969 193.011719 500.34375 184.910156 500.34375 C 176.804688 500.34375 168.957031 499.292969 161.464844 497.335938 L 161.820312 507.542969 L 184.910156 538.742188 L 208.003906 507.535156 Z M 253.6875 407.589844 L 253.6875 341.3125 C 253.6875 338.523438 252.78125 336.433594 250.742188 334.53125 C 248.71875 332.660156 246.570312 331.898438 243.828125 332.113281 C 204.308594 335.070312 167.320312 325.511719 136.839844 304.453125 C 135.820312 303.753906 134.679688 303.410156 133.558594 303.410156 C 132.058594 303.410156 130.589844 304.023438 129.46875 305.214844 C 121.230469 313.921875 116.128906 323.160156 116.128906 329.347656 L 116.128906 407.589844 C 116.128906 434.128906 131.226562 457.1875 153.265625 468.667969 C 153.972656 468.945312 154.648438 469.289062 155.285156 469.695312 C 164.261719 473.996094 174.308594 476.414062 184.910156 476.414062 C 195.679688 476.414062 205.875 473.917969 214.960938 469.484375 C 215.324219 469.269531 215.703125 469.078125 216.09375 468.902344 C 238.386719 457.503906 253.691406 434.308594 253.691406 407.589844 Z M 299.386719 382.175781 C 299.386719 375.371094 296.363281 369.273438 291.605469 365.105469 C 291.308594 364.878906 291.023438 364.640625 290.753906 364.390625 C 287.113281 361.503906 282.570312 359.722656 277.621094 359.519531 L 277.621094 404.867188 C 289.703125 404.371094 299.390625 394.398438 299.390625 382.171875 Z M 734.769531 36.1875 C 728.628906 29.214844 720.800781 25.667969 711.519531 25.667969 L 298.199219 25.667969 C 288.914062 25.667969 281.085938 29.214844 274.933594 36.207031 C 268.800781 43.199219 266.308594 51.417969 267.542969 60.613281 L 291.015625 238.445312 C 296.09375 244.507812 300.828125 251.089844 305.203125 258.195312 C 313.539062 271.714844 317.335938 288.644531 317.976562 305.773438 C 320.003906 306.238281 322.082031 306.476562 324.207031 306.476562 L 418.238281 306.476562 C 421.765625 306.476562 425.113281 308.03125 427.386719 310.730469 C 429.660156 313.429688 430.625 316.996094 430.027344 320.472656 L 423.449219 358.660156 C 423.253906 359.792969 424.960938 362.039062 427.8125 363.574219 C 430.78125 365.152344 433.265625 365.132812 433.796875 364.851562 L 485.496094 310.214844 C 487.753906 307.828125 490.898438 306.472656 494.1875 306.472656 L 685.507812 306.472656 C 699.53125 306.472656 711.046875 296.371094 712.894531 282.453125 L 742.171875 60.632812 C 743.40625 51.414062 740.914062 43.195312 734.769531 36.183594 Z M 403.046875 160.046875 L 403.046875 268.542969 C 403.046875 275.152344 397.691406 280.507812 391.082031 280.507812 L 337.957031 280.507812 C 331.347656 280.507812 325.988281 275.152344 325.988281 268.542969 L 325.988281 160.046875 C 325.988281 153.4375 331.347656 148.082031 337.957031 148.082031 L 391.082031 148.082031 C 397.691406 148.082031 403.046875 153.441406 403.046875 160.046875 Z M 379.113281 172.011719 L 349.921875 172.011719 L 349.921875 256.578125 L 379.113281 256.578125 Z M 496.605469 127.84375 L 496.605469 268.542969 C 496.605469 275.152344 491.25 280.507812 484.640625 280.507812 L 431.515625 280.507812 C 424.90625 280.507812 419.550781 275.152344 419.550781 268.542969 L 419.550781 127.84375 C 419.550781 121.234375 424.90625 115.878906 431.515625 115.878906 L 484.640625 115.878906 C 491.25 115.878906 496.605469 121.234375 496.605469 127.84375 Z M 472.675781 139.808594 L 443.484375 139.808594 L 443.484375 256.578125 L 472.675781 256.578125 Z M 590.167969 98.648438 L 590.167969 268.542969 C 590.167969 275.152344 584.808594 280.507812 578.199219 280.507812 L 525.078125 280.507812 C 518.46875 280.507812 513.109375 275.152344 513.109375 268.542969 L 513.109375 98.648438 C 513.109375 92.042969 518.46875 86.683594 525.078125 86.683594 L 578.199219 86.683594 C 584.808594 86.683594 590.167969 92.042969 590.167969 98.648438 Z M 566.234375 110.613281 L 537.042969 110.613281 L 537.042969 256.578125 L 566.234375 256.578125 Z M 683.726562 57.492188 L 683.726562 268.542969 C 683.726562 275.152344 678.371094 280.507812 671.761719 280.507812 L 618.636719 280.507812 C 612.027344 280.507812 606.671875 275.152344 606.671875 268.542969 L 606.671875 57.492188 C 606.671875 50.882812 612.027344 45.527344 618.636719 45.527344 L 671.761719 45.527344 C 678.371094 45.527344 683.726562 50.882812 683.726562 57.492188 Z M 659.796875 69.457031 L 630.605469 69.457031 L 630.605469 256.578125 L 659.796875 256.578125 Z M 659.796875 69.457031 " fill-opacity="1" fill-rule="nonzero"/></g></svg>