<svg xmlns="http://www.w3.org/2000/svg" xmlns:xlink="http://www.w3.org/1999/xlink" width="1024" zoomAndPan="magnify" viewBox="0 0 768 767.999994" height="1024" preserveAspectRatio="xMidYMid meet" version="1.0"><path fill="#f4a623" d="M 318.023438 76.667969 C 307.242188 72.324219 297.703125 72.597656 297.703125 66.761719 C 297.703125 63.445312 300.175781 61.785156 305.121094 61.785156 C 309.933594 61.785156 315.6875 64.054688 319.289062 66.253906 C 320.300781 66.875 320.890625 67.296875 321.058594 67.519531 L 327.128906 56.054688 C 317.960938 50.707031 307.105469 47.574219 297.070312 50.742188 C 288.941406 53.3125 283.453125 59.828125 283.453125 68.953125 C 283.453125 78.863281 290.007812 82.5625 299.554688 85.480469 C 304.644531 86.996094 310.394531 88.234375 312.964844 90.792969 C 313.695312 91.527344 314.0625 92.453125 314.0625 93.574219 C 314.0625 96.554688 311.613281 98.042969 306.722656 98.042969 C 304.421875 98.042969 302.144531 97.734375 299.894531 97.117188 C 296.382812 96.148438 292.246094 94.597656 289.1875 92.644531 C 287.949219 91.859375 287.21875 91.324219 286.996094 91.046875 L 280.921875 103.101562 C 293.628906 111.710938 319.265625 115.0625 327.003906 100.785156 C 328.269531 98.453125 328.902344 95.597656 328.902344 92.226562 C 328.902344 84.929688 325.726562 79.769531 318.023438 76.667969 Z M 318.023438 76.667969 " fill-opacity="1" fill-rule="nonzero"/><path fill="#f4a623" d="M 352.253906 49.980469 L 330.417969 109.847656 L 344.585938 109.847656 L 349.136719 96.441406 L 367.769531 96.441406 L 372.40625 109.847656 L 386.574219 109.847656 L 364.734375 49.980469 Z M 351.328125 86.914062 L 358.496094 65.75 L 365.492188 86.914062 Z M 351.328125 86.914062 " fill-opacity="1" fill-rule="nonzero"/><path fill="#f4a623" d="M 406.300781 49.980469 L 392.476562 49.980469 L 392.476562 109.847656 L 435.308594 109.847656 L 435.308594 97.707031 L 406.300781 97.707031 Z M 406.300781 49.980469 " fill-opacity="1" fill-rule="nonzero"/><path fill="#f4a623" d="M 455.632812 84.972656 L 479.238281 84.972656 L 479.238281 73.757812 L 455.632812 73.757812 L 455.632812 62.125 L 483.117188 62.125 L 483.117188 49.980469 L 441.800781 49.980469 L 441.800781 109.847656 L 483.878906 109.847656 L 483.878906 97.707031 L 455.632812 97.707031 Z M 455.632812 84.972656 " fill-opacity="1" fill-rule="nonzero"/><path fill="#f4a623" d="M 400 625.59375 C 391.164062 625.59375 384 632.757812 384 641.59375 L 384 657.59375 C 384 666.429688 391.164062 673.59375 400 673.59375 C 408.835938 673.59375 416 666.429688 416 657.59375 L 416 641.59375 C 416 632.757812 408.835938 625.59375 400 625.59375 Z M 400 625.59375 " fill-opacity="1" fill-rule="nonzero"/><path fill="#f4a623" d="M 751.996094 727.992188 L 703.996094 727.992188 L 703.996094 392.984375 C 723.105469 381.902344 735.996094 361.234375 735.996094 337.597656 C 735.984375 234.433594 736.054688 241.304688 735.875 239.703125 C 735.507812 236.644531 734.273438 233.6875 732.160156 231.21875 C 730.4375 229.199219 738.324219 235.507812 598.398438 128.109375 L 598.398438 24 C 598.398438 15.164062 591.234375 8 582.398438 8 L 182.402344 8 C 173.566406 8 166.402344 15.164062 166.402344 24 L 166.402344 128.222656 C 31.996094 234.164062 37.554688 228.589844 34.726562 232.667969 C 33.042969 235.167969 32.003906 238.3125 32.003906 241.597656 L 32.003906 337.597656 C 32.003906 361.234375 44.894531 381.902344 64.003906 392.988281 L 64.003906 727.992188 L 16.003906 727.992188 C 7.167969 727.992188 0.00390625 735.15625 0.00390625 743.992188 C 0.00390625 752.828125 7.167969 759.992188 16.003906 759.992188 C 129.8125 759.992188 724.652344 759.992188 751.996094 759.992188 C 760.832031 759.992188 767.996094 752.828125 767.996094 743.992188 C 767.996094 735.15625 760.832031 727.992188 751.996094 727.992188 Z M 464 647.992188 L 671.996094 647.992188 L 671.996094 663.992188 L 464 663.992188 Z M 703.996094 337.597656 C 703.996094 355.242188 689.640625 369.597656 671.996094 369.597656 C 654.351562 369.597656 639.996094 355.242188 639.996094 337.597656 L 639.996094 257.597656 L 703.996094 257.597656 Z M 64.003906 337.597656 L 64.003906 257.597656 L 128.003906 257.597656 L 128.003906 337.597656 C 128.003906 355.242188 113.648438 369.597656 96.003906 369.597656 C 78.359375 369.597656 64.003906 355.242188 64.003906 337.597656 Z M 160.003906 257.597656 L 224 257.597656 L 224 337.597656 C 224 355.242188 209.648438 369.597656 192.003906 369.597656 C 174.355469 369.597656 160.003906 355.242188 160.003906 337.597656 Z M 256 257.597656 L 320 257.597656 L 320 337.597656 C 320 355.242188 305.644531 369.597656 288 369.597656 C 270.355469 369.597656 256 355.242188 256 337.597656 Z M 352 257.597656 L 416 257.597656 L 416 337.597656 C 416 355.242188 401.644531 369.597656 384 369.597656 C 366.355469 369.597656 352 355.242188 352 337.597656 Z M 448 257.597656 L 512 257.597656 L 512 337.597656 C 512 355.242188 497.644531 369.597656 480 369.597656 C 462.355469 369.597656 448 355.242188 448 337.597656 Z M 544 257.597656 L 607.996094 257.597656 L 607.996094 337.597656 C 607.996094 355.242188 593.644531 369.597656 575.996094 369.597656 C 558.351562 369.597656 544 355.242188 544 337.597656 Z M 198.402344 40 L 566.398438 40 L 566.398438 120 L 198.402344 120 Z M 187.933594 152 L 576.964844 152 L 672.867188 225.597656 C 526.570312 225.597656 228.136719 225.597656 94.261719 225.597656 Z M 144.003906 379.882812 C 169.171875 408.621094 214.535156 408.957031 240 379.882812 C 265.53125 409.03125 310.914062 408.523438 336 379.882812 C 360.941406 408.359375 405.820312 409.285156 432 379.882812 C 458.089844 409.1875 502.59375 408.417969 528 379.882812 C 553.742188 408.796875 598.191406 408.871094 623.996094 379.882812 C 636.925781 394.402344 654.503906 401.597656 671.996094 401.597656 L 671.996094 615.992188 L 464 615.992188 L 464 545.59375 C 464 501.484375 428.113281 465.59375 384 465.59375 C 339.886719 465.59375 304 501.484375 304 545.59375 L 304 615.992188 L 96.003906 615.992188 L 96.003906 401.597656 C 114.816406 401.597656 132.277344 393.269531 144.003906 379.882812 Z M 96.003906 647.992188 L 304 647.992188 L 304 663.992188 L 96.003906 663.992188 Z M 96.003906 695.992188 L 304 695.992188 L 304 727.992188 L 96.003906 727.992188 Z M 336 727.992188 L 336 545.59375 C 336 519.128906 357.53125 497.59375 384 497.59375 C 410.46875 497.59375 432 519.128906 432 545.59375 L 432 727.992188 Z M 464 727.992188 L 464 695.992188 L 671.996094 695.992188 L 671.996094 727.992188 Z M 464 727.992188 " fill-opacity="1" fill-rule="nonzero"/><path fill="#f4a623" d="M 144.003906 593.59375 L 240 593.59375 C 248.839844 593.59375 256 586.429688 256 577.59375 L 256 513.59375 C 256 504.757812 248.839844 497.59375 240 497.59375 L 144.003906 497.59375 C 135.164062 497.59375 128.003906 504.757812 128.003906 513.59375 L 128.003906 577.59375 C 128.003906 586.429688 135.164062 593.59375 144.003906 593.59375 Z M 160.003906 529.59375 L 224 529.59375 L 224 561.59375 L 160.003906 561.59375 Z M 160.003906 529.59375 " fill-opacity="1" fill-rule="nonzero"/><path fill="#f4a623" d="M 528 593.59375 L 623.996094 593.59375 C 632.832031 593.59375 639.996094 586.429688 639.996094 577.59375 L 639.996094 513.59375 C 639.996094 504.757812 632.832031 497.59375 623.996094 497.59375 L 528 497.59375 C 519.164062 497.59375 512 504.757812 512 513.59375 L 512 577.59375 C 512 586.429688 519.164062 593.59375 528 593.59375 Z M 544 529.59375 L 607.996094 529.59375 L 607.996094 561.59375 L 544 561.59375 Z M 544 529.59375 " fill-opacity="1" fill-rule="nonzero"/></svg>