<svg xmlns="http://www.w3.org/2000/svg" xmlns:xlink="http://www.w3.org/1999/xlink" width="500" zoomAndPan="magnify" viewBox="0 0 375 374.999991" height="500" preserveAspectRatio="xMidYMid meet" version="1.0"><defs><clipPath id="fa93d544e5"><path d="M 118.375 118.375 L 256.375 118.375 L 256.375 204 L 118.375 204 Z M 118.375 118.375 " clip-rule="nonzero"/></clipPath><clipPath id="d3c95bcf0c"><path d="M 142 237 L 160 237 L 160 256.375 L 142 256.375 Z M 142 237 " clip-rule="nonzero"/></clipPath><clipPath id="19a9c7f60c"><path d="M 166 224 L 184 224 L 184 256.375 L 166 256.375 Z M 166 224 " clip-rule="nonzero"/></clipPath><clipPath id="d5abe8cd43"><path d="M 191 230 L 209 230 L 209 256.375 L 191 256.375 Z M 191 230 " clip-rule="nonzero"/></clipPath><clipPath id="a260172c96"><path d="M 215 212 L 233 212 L 233 256.375 L 215 256.375 Z M 215 212 " clip-rule="nonzero"/></clipPath></defs><path fill="#1e3a8a" d="M 328.167969 59.375 L 330.015625 61.222656 C 332.597656 63.804688 332.292969 68.605469 329.273438 72.851562 L 321.523438 83.757812 C 320.839844 84.726562 320.222656 85.738281 319.683594 86.792969 C 319.140625 87.847656 318.679688 88.9375 318.292969 90.0625 C 317.90625 91.183594 317.601562 92.328125 317.382812 93.496094 C 317.160156 94.660156 317.023438 95.835938 316.96875 97.023438 C 316.914062 98.207031 316.945312 99.390625 317.0625 100.574219 C 317.179688 101.753906 317.378906 102.921875 317.664062 104.074219 C 317.945312 105.226562 318.308594 106.351562 318.753906 107.453125 C 319.199219 108.554688 319.71875 109.617188 320.316406 110.644531 L 320.476562 110.917969 C 321.066406 111.945312 321.726562 112.929688 322.457031 113.863281 C 323.1875 114.796875 323.984375 115.675781 324.839844 116.496094 C 325.695312 117.320312 326.605469 118.074219 327.570312 118.765625 C 328.535156 119.457031 329.546875 120.074219 330.597656 120.621094 C 331.652344 121.167969 332.738281 121.636719 333.859375 122.027344 C 334.980469 122.417969 336.125 122.730469 337.289062 122.957031 C 338.453125 123.183594 339.628906 123.328125 340.8125 123.386719 C 342 123.449219 343.183594 123.421875 344.363281 123.3125 L 357.683594 122.050781 C 362.867188 121.5625 367.179688 123.699219 368.121094 127.226562 L 374.058594 149.390625 C 375.003906 152.921875 372.339844 156.929688 367.605469 159.09375 L 355.394531 164.6875 C 354.316406 165.183594 353.28125 165.753906 352.285156 166.394531 C 351.289062 167.039062 350.34375 167.75 349.449219 168.527344 C 348.554688 169.304688 347.722656 170.144531 346.945312 171.042969 C 346.171875 171.941406 345.464844 172.886719 344.828125 173.886719 C 344.191406 174.886719 343.625 175.925781 343.136719 177.003906 C 342.644531 178.085938 342.234375 179.191406 341.90625 180.332031 C 341.574219 181.46875 341.324219 182.625 341.160156 183.800781 C 340.996094 184.972656 340.914062 186.152344 340.917969 187.339844 L 340.917969 187.652344 C 340.914062 188.839844 340.996094 190.019531 341.160156 191.191406 C 341.324219 192.367188 341.574219 193.523438 341.90625 194.660156 C 342.234375 195.800781 342.644531 196.90625 343.136719 197.988281 C 343.625 199.066406 344.191406 200.105469 344.828125 201.105469 C 345.464844 202.105469 346.171875 203.050781 346.945312 203.949219 C 347.722656 204.847656 348.554688 205.6875 349.449219 206.464844 C 350.34375 207.242188 351.289062 207.953125 352.285156 208.597656 C 353.28125 209.238281 354.316406 209.808594 355.394531 210.304688 L 367.605469 215.898438 C 372.332031 218.0625 375.003906 222.070312 374.058594 225.597656 L 368.117188 247.765625 C 367.175781 251.292969 362.863281 253.429688 357.679688 252.941406 L 344.363281 251.679688 C 343.179688 251.570312 341.996094 251.542969 340.8125 251.605469 C 339.625 251.664062 338.449219 251.808594 337.285156 252.035156 C 336.121094 252.261719 334.980469 252.574219 333.859375 252.964844 C 332.738281 253.355469 331.652344 253.824219 330.597656 254.371094 C 329.542969 254.917969 328.535156 255.535156 327.570312 256.226562 C 326.605469 256.917969 325.695312 257.671875 324.835938 258.496094 C 323.980469 259.316406 323.1875 260.195312 322.457031 261.128906 C 321.726562 262.0625 321.0625 263.046875 320.472656 264.074219 L 320.3125 264.347656 C 319.71875 265.375 319.195312 266.4375 318.753906 267.539062 C 318.308594 268.640625 317.945312 269.765625 317.660156 270.917969 C 317.378906 272.070312 317.175781 273.238281 317.0625 274.417969 C 316.945312 275.601562 316.914062 276.785156 316.96875 277.96875 C 317.019531 279.15625 317.15625 280.332031 317.378906 281.496094 C 317.601562 282.664062 317.90625 283.808594 318.289062 284.929688 C 318.675781 286.054688 319.140625 287.144531 319.679688 288.199219 C 320.222656 289.253906 320.835938 290.265625 321.523438 291.234375 L 329.273438 302.140625 C 332.289062 306.382812 332.59375 311.1875 330.011719 313.769531 L 313.785156 329.996094 C 311.203125 332.582031 306.402344 332.273438 302.15625 329.257812 L 291.25 321.507812 C 290.28125 320.820312 289.269531 320.207031 288.214844 319.664062 C 287.160156 319.125 286.070312 318.660156 284.945312 318.273438 C 283.824219 317.890625 282.679688 317.585938 281.511719 317.363281 C 280.347656 317.140625 279.171875 317.003906 277.984375 316.953125 C 276.800781 316.898438 275.617188 316.929688 274.4375 317.046875 C 273.253906 317.160156 272.085938 317.363281 270.933594 317.644531 C 269.78125 317.929688 268.65625 318.292969 267.554688 318.734375 C 266.453125 319.179688 265.390625 319.703125 264.363281 320.296875 L 264.089844 320.457031 C 263.0625 321.046875 262.078125 321.710938 261.144531 322.441406 C 260.210938 323.171875 259.332031 323.964844 258.511719 324.820312 C 257.691406 325.679688 256.933594 326.589844 256.242188 327.554688 C 255.550781 328.519531 254.933594 329.527344 254.386719 330.582031 C 253.839844 331.636719 253.371094 332.722656 252.980469 333.84375 C 252.589844 334.964844 252.277344 336.105469 252.050781 337.269531 C 251.824219 338.433594 251.679688 339.609375 251.621094 340.796875 C 251.558594 341.980469 251.585938 343.164062 251.695312 344.347656 L 252.957031 357.664062 C 253.445312 362.847656 251.308594 367.160156 247.78125 368.101562 L 225.613281 374.042969 C 222.085938 374.984375 218.078125 372.324219 215.914062 367.589844 L 210.320312 355.378906 C 209.824219 354.300781 209.253906 353.265625 208.613281 352.269531 C 207.96875 351.273438 207.257812 350.328125 206.480469 349.433594 C 205.703125 348.539062 204.863281 347.707031 203.964844 346.929688 C 203.066406 346.15625 202.121094 345.449219 201.121094 344.8125 C 200.121094 344.175781 199.082031 343.609375 198.003906 343.121094 C 196.921875 342.628906 195.816406 342.21875 194.675781 341.890625 C 193.539062 341.558594 192.382812 341.308594 191.207031 341.144531 C 190.035156 340.980469 188.855469 340.898438 187.667969 340.902344 L 187.355469 340.902344 C 186.167969 340.898438 184.988281 340.980469 183.816406 341.144531 C 182.640625 341.308594 181.484375 341.558594 180.347656 341.890625 C 179.210938 342.21875 178.101562 342.628906 177.019531 343.121094 C 175.941406 343.609375 174.902344 344.175781 173.902344 344.8125 C 172.902344 345.449219 171.957031 346.15625 171.058594 346.929688 C 170.160156 347.707031 169.320312 348.539062 168.542969 349.433594 C 167.765625 350.328125 167.054688 351.273438 166.410156 352.269531 C 165.769531 353.265625 165.199219 354.300781 164.703125 355.378906 L 159.109375 367.589844 C 156.945312 372.316406 152.9375 374.988281 149.40625 374.042969 L 127.242188 368.105469 C 123.714844 367.160156 121.578125 362.847656 122.066406 357.667969 L 123.328125 344.347656 C 123.4375 343.167969 123.464844 341.984375 123.402344 340.796875 C 123.34375 339.613281 123.199219 338.4375 122.972656 337.273438 C 122.746094 336.109375 122.4375 334.964844 122.042969 333.84375 C 121.652344 332.722656 121.183594 331.636719 120.636719 330.582031 C 120.089844 329.53125 119.472656 328.519531 118.78125 327.554688 C 118.089844 326.589844 117.335938 325.679688 116.511719 324.824219 C 115.691406 323.96875 114.8125 323.171875 113.878906 322.441406 C 112.945312 321.710938 111.960938 321.050781 110.933594 320.460938 L 110.660156 320.300781 C 109.632812 319.703125 108.570312 319.183594 107.46875 318.738281 C 106.367188 318.292969 105.242188 317.929688 104.089844 317.644531 C 102.9375 317.363281 101.769531 317.164062 100.589844 317.046875 C 99.40625 316.929688 98.222656 316.898438 97.039062 316.953125 C 95.851562 317.007812 94.675781 317.144531 93.511719 317.367188 C 92.34375 317.585938 91.199219 317.890625 90.078125 318.277344 C 88.953125 318.664062 87.863281 319.125 86.808594 319.667969 C 85.753906 320.207031 84.742188 320.824219 83.773438 321.507812 L 72.867188 329.257812 C 72.476562 329.539062 72.082031 329.792969 71.6875 330.023438 L 15.792969 371.753906 L 116.652344 270.890625 C 160.953125 308.550781 228.726562 305.164062 268.8125 260.742188 C 305.601562 219.972656 306.296875 158.203125 270.902344 116.640625 Z M 328.167969 59.375 " fill-opacity="1" fill-rule="nonzero"/><path fill="#f4a623" d="M 359.640625 2.835938 L 258.363281 104.113281 C 214.0625 66.453125 146.289062 69.839844 106.203125 114.261719 C 69.414062 155.03125 68.71875 216.800781 104.113281 258.363281 L 46.847656 315.628906 L 45.003906 313.78125 C 42.417969 311.199219 42.722656 306.398438 45.742188 302.152344 L 53.492188 291.246094 C 54.179688 290.277344 54.792969 289.265625 55.335938 288.210938 C 55.875 287.15625 56.339844 286.066406 56.726562 284.941406 C 57.109375 283.820312 57.414062 282.675781 57.636719 281.507812 C 57.859375 280.34375 57.996094 279.167969 58.046875 277.980469 C 58.101562 276.796875 58.070312 275.613281 57.953125 274.429688 C 57.839844 273.25 57.636719 272.082031 57.355469 270.929688 C 57.070312 269.777344 56.707031 268.652344 56.265625 267.550781 C 55.820312 266.449219 55.296875 265.386719 54.703125 264.359375 L 54.542969 264.085938 C 53.953125 263.058594 53.289062 262.074219 52.558594 261.140625 C 51.828125 260.207031 51.03125 259.328125 50.175781 258.507812 C 49.320312 257.6875 48.40625 256.929688 47.441406 256.238281 C 46.476562 255.546875 45.46875 254.929688 44.414062 254.382812 C 43.359375 253.835938 42.273438 253.367188 41.152344 252.976562 C 40.03125 252.585938 38.886719 252.277344 37.722656 252.050781 C 36.558594 251.824219 35.382812 251.679688 34.195312 251.621094 C 33.011719 251.5625 31.828125 251.585938 30.644531 251.695312 L 17.328125 252.957031 C 12.144531 253.449219 7.832031 251.308594 6.890625 247.78125 L 0.949219 225.617188 C 0.0078125 222.085938 2.667969 218.082031 7.402344 215.914062 L 19.613281 210.320312 C 20.691406 209.828125 21.726562 209.257812 22.722656 208.613281 C 23.71875 207.972656 24.664062 207.261719 25.558594 206.480469 C 26.453125 205.703125 27.285156 204.867188 28.0625 203.96875 C 28.835938 203.070312 29.542969 202.121094 30.179688 201.121094 C 30.816406 200.125 31.382812 199.085938 31.871094 198.003906 C 32.363281 196.925781 32.773438 195.816406 33.101562 194.679688 C 33.433594 193.539062 33.683594 192.382812 33.847656 191.210938 C 34.011719 190.035156 34.09375 188.855469 34.089844 187.671875 L 34.089844 187.355469 C 34.09375 186.171875 34.011719 184.992188 33.847656 183.816406 C 33.683594 182.644531 33.433594 181.488281 33.101562 180.347656 C 32.773438 179.210938 32.363281 178.101562 31.871094 177.023438 C 31.382812 175.941406 30.816406 174.902344 30.179688 173.90625 C 29.542969 172.90625 28.835938 171.957031 28.0625 171.058594 C 27.285156 170.164062 26.453125 169.324219 25.558594 168.546875 C 24.664062 167.765625 23.71875 167.054688 22.722656 166.414062 C 21.726562 165.769531 20.691406 165.203125 19.613281 164.707031 L 7.402344 159.113281 C 2.675781 156.945312 0.00390625 152.9375 0.949219 149.410156 L 6.894531 127.222656 C 7.839844 123.695312 12.148438 121.554688 17.332031 122.046875 L 30.648438 123.308594 C 31.832031 123.417969 33.015625 123.441406 34.199219 123.382812 C 35.386719 123.324219 36.5625 123.179688 37.726562 122.949219 C 38.890625 122.722656 40.03125 122.414062 41.152344 122.023438 C 42.273438 121.632812 43.359375 121.164062 44.414062 120.617188 C 45.46875 120.070312 46.476562 119.449219 47.441406 118.757812 C 48.40625 118.070312 49.316406 117.3125 50.175781 116.492188 C 51.03125 115.667969 51.824219 114.792969 52.554688 113.855469 C 53.285156 112.921875 53.949219 111.941406 54.539062 110.910156 L 54.699219 110.636719 C 55.292969 109.609375 55.816406 108.546875 56.257812 107.449219 C 56.703125 106.347656 57.066406 105.222656 57.351562 104.070312 C 57.632812 102.917969 57.832031 101.75 57.949219 100.570312 C 58.066406 99.386719 58.097656 98.203125 58.042969 97.019531 C 57.992188 95.835938 57.855469 94.660156 57.632812 93.492188 C 57.410156 92.328125 57.109375 91.183594 56.722656 90.0625 C 56.335938 88.9375 55.875 87.847656 55.332031 86.792969 C 54.792969 85.738281 54.179688 84.726562 53.492188 83.757812 L 45.742188 72.851562 C 42.726562 68.609375 42.421875 63.804688 45.003906 61.222656 L 61.230469 44.996094 C 63.8125 42.410156 68.613281 42.71875 72.859375 45.734375 L 83.765625 53.484375 C 84.734375 54.171875 85.746094 54.785156 86.800781 55.328125 C 87.855469 55.867188 88.945312 56.332031 90.070312 56.71875 C 91.191406 57.101562 92.335938 57.40625 93.503906 57.628906 C 94.667969 57.851562 95.84375 57.988281 97.03125 58.039062 C 98.214844 58.09375 99.398438 58.0625 100.582031 57.945312 C 101.761719 57.832031 102.929688 57.628906 104.082031 57.347656 C 105.234375 57.0625 106.359375 56.699219 107.460938 56.257812 C 108.5625 55.8125 109.625 55.289062 110.652344 54.695312 L 110.925781 54.535156 C 111.953125 53.945312 112.9375 53.28125 113.871094 52.550781 C 114.804688 51.820312 115.683594 51.027344 116.503906 50.171875 C 117.328125 49.3125 118.082031 48.402344 118.773438 47.4375 C 119.464844 46.472656 120.082031 45.464844 120.628906 44.410156 C 121.175781 43.355469 121.644531 42.269531 122.035156 41.148438 C 122.425781 40.027344 122.738281 38.886719 122.964844 37.722656 C 123.191406 36.558594 123.335938 35.382812 123.394531 34.195312 C 123.457031 33.011719 123.429688 31.828125 123.320312 30.644531 L 122.058594 17.328125 C 121.570312 12.144531 123.707031 7.832031 127.234375 6.890625 L 149.402344 0.949219 C 152.929688 0.0078125 156.9375 2.667969 159.101562 7.402344 L 164.695312 19.613281 C 165.191406 20.691406 165.761719 21.726562 166.402344 22.722656 C 167.046875 23.71875 167.757812 24.664062 168.535156 25.558594 C 169.3125 26.453125 170.152344 27.285156 171.050781 28.0625 C 171.949219 28.835938 172.894531 29.542969 173.894531 30.179688 C 174.894531 30.816406 175.933594 31.382812 177.011719 31.871094 C 178.09375 32.363281 179.199219 32.773438 180.339844 33.101562 C 181.476562 33.433594 182.632812 33.683594 183.808594 33.847656 C 184.980469 34.011719 186.160156 34.09375 187.347656 34.089844 L 187.660156 34.089844 C 188.847656 34.09375 190.027344 34.011719 191.199219 33.847656 C 192.375 33.683594 193.53125 33.433594 194.667969 33.101562 C 195.808594 32.773438 196.914062 32.363281 197.996094 31.871094 C 199.074219 31.382812 200.113281 30.816406 201.113281 30.179688 C 202.113281 29.542969 203.058594 28.835938 203.957031 28.0625 C 204.855469 27.285156 205.695312 26.453125 206.472656 25.558594 C 207.25 24.664062 207.960938 23.71875 208.605469 22.722656 C 209.246094 21.726562 209.816406 20.691406 210.3125 19.613281 L 215.90625 7.402344 C 218.070312 2.675781 222.078125 0.00390625 225.605469 0.949219 L 247.78125 6.882812 C 251.3125 7.828125 253.449219 12.140625 252.957031 17.320312 L 251.695312 30.640625 C 251.585938 31.820312 251.5625 33.003906 251.621094 34.191406 C 251.679688 35.375 251.824219 36.550781 252.054688 37.714844 C 252.28125 38.878906 252.589844 40.023438 252.980469 41.144531 C 253.371094 42.265625 253.839844 43.351562 254.386719 44.40625 C 254.933594 45.457031 255.554688 46.46875 256.246094 47.433594 C 256.933594 48.398438 257.691406 49.308594 258.511719 50.164062 C 259.335938 51.019531 260.210938 51.816406 261.148438 52.546875 C 262.082031 53.277344 263.0625 53.9375 264.09375 54.527344 L 264.367188 54.6875 C 265.394531 55.285156 266.457031 55.804688 267.558594 56.25 C 268.65625 56.695312 269.785156 57.058594 270.9375 57.339844 C 272.089844 57.625 273.257812 57.824219 274.4375 57.941406 C 275.617188 58.054688 276.800781 58.089844 277.988281 58.035156 C 279.171875 57.980469 280.347656 57.84375 281.515625 57.621094 C 282.679688 57.402344 283.824219 57.097656 284.949219 56.710938 C 286.070312 56.324219 287.160156 55.863281 288.214844 55.320312 C 289.273438 54.777344 290.285156 54.164062 291.253906 53.480469 L 302.15625 45.730469 C 302.234375 45.671875 302.308594 45.621094 302.390625 45.570312 Z M 359.640625 2.835938 " fill-opacity="1" fill-rule="nonzero"/><g clip-path="url(#fa93d544e5)"><path fill="#1e3a8a" d="M 247.726562 153.53125 C 247.667969 153.421875 247.59375 153.328125 247.515625 153.242188 C 247.480469 153.132812 247.4375 153.027344 247.378906 152.929688 C 242.890625 145.167969 237.039062 138.457031 229.976562 132.953125 L 233.726562 127.148438 C 233.964844 126.78125 234.046875 126.34375 233.953125 125.917969 C 233.863281 125.496094 233.609375 125.125 233.242188 124.890625 L 225.8125 120.089844 C 225.058594 119.605469 224.046875 119.820312 223.558594 120.574219 L 221.847656 123.226562 L 216.140625 119.535156 C 215.777344 119.300781 215.335938 119.21875 214.914062 119.3125 C 214.488281 119.402344 214.117188 119.660156 213.882812 120.023438 L 212.050781 122.859375 C 204.214844 119.882812 195.964844 118.375 187.507812 118.375 C 187.390625 118.375 187.273438 118.386719 187.164062 118.410156 C 187.058594 118.390625 186.953125 118.378906 186.84375 118.378906 C 186.839844 118.378906 186.832031 118.378906 186.828125 118.378906 C 174.917969 118.496094 163.199219 121.691406 152.941406 127.625 C 152.886719 127.65625 152.835938 127.691406 152.785156 127.730469 C 152.75 127.746094 152.714844 127.761719 152.679688 127.78125 C 142.316406 133.835938 133.65625 142.53125 127.636719 152.929688 C 127.609375 152.976562 127.582031 153.027344 127.558594 153.078125 C 127.53125 153.121094 127.503906 153.160156 127.480469 153.207031 C 121.527344 163.601562 118.382812 175.457031 118.382812 187.496094 C 118.382812 188.398438 119.113281 189.128906 120.015625 189.128906 L 144.402344 189.128906 C 145.300781 189.128906 146.035156 188.398438 146.035156 187.496094 C 146.035156 180.277344 147.917969 173.164062 151.480469 166.929688 C 151.492188 166.910156 151.503906 166.886719 151.511719 166.867188 C 151.539062 166.832031 151.5625 166.796875 151.585938 166.761719 C 155.171875 160.558594 160.339844 155.355469 166.527344 151.714844 C 166.570312 151.6875 166.609375 151.660156 166.648438 151.632812 C 166.691406 151.613281 166.730469 151.597656 166.773438 151.574219 C 172.964844 147.992188 180.03125 146.074219 187.210938 146.023438 C 187.253906 146.023438 187.300781 146.019531 187.34375 146.015625 C 187.398438 146.019531 187.449219 146.023438 187.507812 146.023438 C 193.535156 146.023438 199.308594 147.273438 204.707031 149.75 L 190.664062 171.472656 C 184.125 170.175781 177.464844 172.960938 173.792969 178.632812 C 171.425781 182.292969 170.625 186.660156 171.542969 190.925781 C 172.457031 195.191406 174.980469 198.84375 178.644531 201.210938 C 181.378906 202.976562 184.449219 203.820312 187.484375 203.820312 C 192.84375 203.820312 198.101562 201.1875 201.21875 196.359375 C 204.890625 190.691406 204.699219 183.476562 200.835938 178.042969 L 214.867188 156.328125 L 214.871094 156.324219 C 218.277344 159.316406 221.15625 162.820312 223.4375 166.761719 C 223.453125 166.789062 223.476562 166.816406 223.492188 166.84375 C 223.515625 166.890625 223.539062 166.9375 223.5625 166.984375 C 227.109375 173.195312 228.980469 180.289062 228.980469 187.496094 C 228.980469 188.398438 229.710938 189.128906 230.613281 189.128906 L 255 189.128906 C 255.898438 189.128906 256.632812 188.398438 256.632812 187.496094 C 256.632812 175.585938 253.550781 163.839844 247.726562 153.53125 Z M 194.195312 191.816406 C 192.671875 194.167969 190.105469 195.449219 187.492188 195.449219 C 186.015625 195.449219 184.523438 195.039062 183.191406 194.1875 C 179.503906 191.796875 178.445312 186.859375 180.828125 183.175781 C 181.984375 181.394531 183.761719 180.164062 185.839844 179.71875 C 187.917969 179.273438 190.042969 179.664062 191.828125 180.820312 C 193.613281 181.964844 194.84375 183.746094 195.292969 185.820312 C 195.738281 187.902344 195.347656 190.03125 194.195312 191.816406 Z M 185.875 121.664062 L 185.875 142.785156 C 179.128906 143.03125 172.511719 144.804688 166.566406 147.953125 L 156 129.652344 C 165.140625 124.667969 175.414062 121.921875 185.875 121.664062 Z M 142.796875 185.863281 L 121.667969 185.863281 C 121.929688 175.402344 124.679688 165.132812 129.667969 155.988281 L 147.960938 166.554688 C 144.8125 172.496094 143.042969 179.113281 142.796875 185.863281 Z M 149.601562 163.726562 L 131.300781 153.160156 C 136.753906 144.257812 144.277344 136.746094 153.175781 131.300781 L 163.738281 149.589844 C 158.027344 153.179688 153.183594 158.027344 149.601562 163.726562 Z M 189.140625 142.785156 L 189.140625 121.660156 C 196.394531 121.832031 203.472656 123.179688 210.238281 125.667969 L 209.085938 127.449219 C 208.597656 128.210938 208.8125 129.21875 209.570312 129.707031 L 215.269531 133.394531 L 212.984375 136.933594 L 210.355469 135.234375 C 209.601562 134.746094 208.585938 134.964844 208.097656 135.71875 L 203.292969 143.148438 C 202.800781 143.90625 203.019531 144.914062 203.777344 145.40625 L 205.5 146.523438 C 200.332031 144.238281 194.847656 142.984375 189.140625 142.785156 Z M 216.660156 153.554688 L 228.195312 135.703125 C 234.398438 140.578125 239.609375 146.4375 243.71875 153.160156 L 225.421875 163.726562 C 223.023438 159.90625 220.082031 156.496094 216.660156 153.554688 Z M 232.21875 185.863281 C 231.972656 179.109375 230.203125 172.488281 227.054688 166.554688 L 245.355469 155.984375 C 250.339844 165.125 253.085938 175.402344 253.34375 185.863281 Z M 232.21875 185.863281 " fill-opacity="1" fill-rule="nonzero"/></g><g clip-path="url(#d3c95bcf0c)"><path fill="#1e3a8a" d="M 158.191406 237.933594 L 144.363281 237.933594 C 143.460938 237.933594 142.730469 238.664062 142.730469 239.566406 L 142.730469 254.988281 C 142.730469 255.890625 143.460938 256.621094 144.363281 256.621094 L 158.191406 256.621094 C 159.097656 256.621094 159.824219 255.890625 159.824219 254.988281 L 159.824219 239.566406 C 159.824219 238.664062 159.097656 237.933594 158.191406 237.933594 Z M 158.191406 237.933594 " fill-opacity="1" fill-rule="nonzero"/></g><g clip-path="url(#19a9c7f60c)"><path fill="#1e3a8a" d="M 182.347656 224.664062 L 168.515625 224.664062 C 167.613281 224.664062 166.882812 225.398438 166.882812 226.296875 L 166.882812 254.988281 C 166.882812 255.890625 167.613281 256.621094 168.515625 256.621094 L 182.347656 256.621094 C 183.25 256.621094 183.980469 255.890625 183.980469 254.988281 L 183.980469 226.296875 C 183.980469 225.398438 183.25 224.664062 182.347656 224.664062 Z M 182.347656 224.664062 " fill-opacity="1" fill-rule="nonzero"/></g><g clip-path="url(#d5abe8cd43)"><path fill="#1e3a8a" d="M 206.5 230.488281 L 192.667969 230.488281 C 191.765625 230.488281 191.035156 231.222656 191.035156 232.121094 L 191.035156 254.988281 C 191.035156 255.890625 191.765625 256.621094 192.667969 256.621094 L 206.5 256.621094 C 207.402344 256.621094 208.132812 255.890625 208.132812 254.988281 L 208.132812 232.121094 C 208.132812 231.222656 207.402344 230.488281 206.5 230.488281 Z M 206.5 230.488281 " fill-opacity="1" fill-rule="nonzero"/></g><g clip-path="url(#a260172c96)"><path fill="#1e3a8a" d="M 230.660156 212.933594 L 216.824219 212.933594 C 215.917969 212.933594 215.191406 213.664062 215.191406 214.566406 L 215.191406 254.988281 C 215.191406 255.890625 215.917969 256.621094 216.824219 256.621094 L 230.660156 256.621094 C 231.5625 256.621094 232.292969 255.890625 232.292969 254.988281 L 232.292969 214.566406 C 232.292969 213.664062 231.5625 212.933594 230.660156 212.933594 Z M 230.660156 212.933594 " fill-opacity="1" fill-rule="nonzero"/></g><path fill="#1e3a8a" d="M 176.128906 208.796875 C 175.558594 208.53125 174.890625 208.613281 174.402344 209.011719 L 150.25 228.710938 C 149.550781 229.28125 149.445312 230.3125 150.015625 231.011719 C 150.339844 231.40625 150.808594 231.609375 151.28125 231.609375 C 151.644531 231.609375 152.011719 231.492188 152.3125 231.242188 L 175.671875 212.191406 L 198.894531 223.085938 C 199.539062 223.390625 200.308594 223.238281 200.792969 222.710938 L 222.109375 199.472656 L 222.109375 203.925781 C 222.109375 204.828125 222.839844 205.558594 223.742188 205.558594 C 224.644531 205.558594 225.375 204.828125 225.375 203.925781 L 225.375 195.28125 C 225.375 194.378906 224.644531 193.648438 223.742188 193.648438 L 215.417969 193.648438 C 214.515625 193.648438 213.785156 194.378906 213.785156 195.28125 C 213.785156 196.183594 214.515625 196.914062 215.417969 196.914062 L 220.023438 196.914062 L 199.195312 219.621094 Z M 176.128906 208.796875 " fill-opacity="1" fill-rule="nonzero"/><path fill="#1e3a8a" d="M 243.964844 198.382812 C 243.328125 197.746094 242.292969 197.746094 241.65625 198.382812 L 235.539062 204.5 C 234.902344 205.140625 234.902344 206.171875 235.539062 206.808594 C 236.175781 207.449219 237.210938 207.449219 237.847656 206.808594 L 241.175781 203.480469 L 241.175781 220.382812 C 241.175781 221.285156 241.910156 222.015625 242.808594 222.015625 C 243.710938 222.015625 244.441406 221.285156 244.441406 220.382812 L 244.441406 203.480469 L 247.773438 206.808594 C 248.089844 207.128906 248.507812 207.289062 248.925781 207.289062 C 249.34375 207.289062 249.761719 207.128906 250.082031 206.808594 C 250.71875 206.171875 250.71875 205.140625 250.082031 204.5 Z M 243.964844 198.382812 " fill-opacity="1" fill-rule="nonzero"/><path fill="#1e3a8a" d="M 133.367188 198.382812 C 132.730469 197.746094 131.695312 197.746094 131.058594 198.382812 L 124.941406 204.5 C 124.304688 205.140625 124.304688 206.171875 124.941406 206.808594 C 125.578125 207.449219 126.613281 207.449219 127.25 206.808594 L 130.578125 203.480469 L 130.578125 220.382812 C 130.578125 221.285156 131.3125 222.015625 132.210938 222.015625 C 133.113281 222.015625 133.84375 221.285156 133.84375 220.382812 L 133.84375 203.480469 L 137.175781 206.808594 C 137.492188 207.128906 137.910156 207.289062 138.328125 207.289062 C 138.746094 207.289062 139.164062 207.128906 139.484375 206.808594 C 140.121094 206.171875 140.121094 205.140625 139.484375 204.5 Z M 133.367188 198.382812 " fill-opacity="1" fill-rule="nonzero"/></svg>